<?xml version="1.0" encoding="UTF-8"?>
<svg id="Ebene_1" enable-background="new 0 0 362.4 78.8" version="1.1" viewBox="0 0 362.4 78.8" xml:space="preserve" xmlns="http://www.w3.org/2000/svg">
<style type="text/css">
	.st0{enable-background:new    ;}
	.st1{fill:#362071;}
	.st2{fill:none;stroke:#362071;stroke-width:5;stroke-miterlimit:10;}
</style>

<g class="st0">
	<path class="st1" d="m89.8 36.9h-1.8v-2.1h4.6v12.1c0 1 0.2 1.6 1.2 1.6h0.5v2.3s-0.5 0.1-1 0.1c-1.8 0-3.5-0.6-3.5-3.7v-10.3z"/>
	<path class="st1" d="m101.6 39c3.3 0 5.1 2.4 5.1 5.4 0 0.3-0.1 1-0.1 1h-7.9c0.2 2.1 1.7 3.2 3.4 3.2 1.9 0 3.3-1.2 3.3-1.2l1.1 2s-1.7 1.6-4.6 1.6c-3.8 0-6.1-2.7-6.1-6 0-3.6 2.3-6 5.8-6zm2.1 4.7c0-1.6-1-2.5-2.2-2.5-1.5 0-2.5 1-2.8 2.5h5z"/>
	<path class="st1" d="m108.5 48.5h1.7v-7.2h-1.8v-2.1h4.6v9.3h1.6v2.1h-6.1v-2.1zm1.7-13.7h2.9v2.5h-2.9v-2.5z"/>
	<path class="st1" d="m117.1 36.9h-1.7v-2.1h4.6v5 1s1-1.7 3.4-1.7c3.1 0 5.1 2.4 5.1 6s-2.2 6-5.3 6c-2.5 0-3.4-1.8-3.4-1.8v0.9 0.7h-2.7v-14zm5.6 11.6c1.6 0 2.9-1.3 2.9-3.5s-1.2-3.6-2.8-3.6c-1.5 0-2.9 1.1-2.9 3.6 0 1.8 0.9 3.5 2.8 3.5z"/>
	<path class="st1" d="m130.3 48.5h1.7v-6.7c0-0.3-0.2-0.5-0.5-0.5h-1.3v-2.1h3c1 0 1.5 0.5 1.5 1.3v0.5 0.5c0.1-0.4 1.3-2.6 4.2-2.6 2.4 0 3.8 1.3 3.8 4.3v5.2h1.7v2.1h-4.5v-6.8c0-1.4-0.4-2.3-1.8-2.3-2.1 0-3.3 2-3.3 4v3h1.6v2.1h-6.1v-2z"/>
	<path class="st1" d="m145.9 48.5h1.7v-7.2h-1.8v-2.1h4.6v9.3h1.6v2.1h-6.1v-2.1zm1.7-13.7h2.9v2.5h-2.9v-2.5z"/>
	<path class="st1" d="m159.6 42c0.3-0.4 0.7-0.7 0.7-0.7h-1-3v1.7h-2.4v-3.8h9.8v1.8l-5.7 6.8c-0.3 0.4-0.7 0.6-0.7 0.6h0.9 3.2v-1.6h2.4v3.8h-10v-1.8l5.8-6.8z"/>
	<path class="st1" d="M166.6,43h6.7v2.5h-6.7V43z"/>
	<path class="st1" d="m177.6 53v-11.1c0-0.3-0.2-0.5-0.5-0.5h-1.3v-2.1h2.9c1.1 0 1.4 0.5 1.4 1.1v0.1 0.5s1-1.9 3.7-1.9c3.1 0 5.1 2.4 5.1 6s-2.2 6-5.2 6c-2.3 0-3.3-1.6-3.3-1.6s0.1 0.4 0.1 1v2.5h1.7v2.1h-6.2v-2.1h1.6zm5.6-4.5c1.6 0 2.9-1.3 2.9-3.5s-1.2-3.6-2.8-3.6c-1.5 0-2.9 1.1-2.9 3.6 0 1.8 1 3.5 2.8 3.5z"/>
	<path class="st1" d="m190.6 46.9h2.4v0.7c0 0.8 1.1 1.2 2.2 1.2s2-0.4 2-1.2c0-1-1.1-1.2-2.6-1.8-1.7-0.6-3.6-1.4-3.6-3.5 0-2.4 2.4-3.3 4.5-3.3 1.7 0 4.1 0.7 4.1 2.4v1.5h-2.4v-0.6c0-0.6-0.7-0.9-1.7-0.9-0.9 0-1.7 0.3-1.7 1 0 0.9 1.1 1.3 2.4 1.7 1.7 0.6 3.8 1.3 3.8 3.5 0 2.3-2.2 3.5-4.8 3.5-2.1 0-4.6-0.9-4.6-2.8v-1.4z"/>
</g>
<g class="st0">
	<path class="st1" d="m204 53c0.9 0 1.7-0.5 2-1.3l0.3-0.7-3.9-9.6h-1.4v-2.1h5.6v2.1h-1.3l2.1 5.8c0.2 0.6 0.2 1.2 0.2 1.2h0.1s0.1-0.6 0.3-1.2l2.1-5.8h-1.3v-2.1h5.4v2.1h-1.3l-4.2 10.8c-0.9 2.3-2.6 3.2-4.5 3.2-1.7 0-2.8-0.8-2.8-0.8l0.9-2.1s0.7 0.5 1.7 0.5z"/>
</g>
<g class="st0">
	<path class="st1" d="m221.2 39c1.9 0 4.7 0.7 4.7 2.7v1.6h-2.5v-0.8c0-0.8-1.2-1.1-2.1-1.1-2.1 0-3.4 1.4-3.4 3.5 0 2.4 1.6 3.6 3.6 3.6 1.6 0 2.9-0.9 3.6-1.4l1 2c-0.8 0.7-2.6 1.8-4.7 1.8-3.3 0-6.3-2.3-6.3-6 0-3.3 2.6-5.9 6.1-5.9z"/>
	<path class="st1" d="m227.5 48.5h1.7v-11.6h-1.8v-2.1h4.6v5.6c0 0.6-0.1 1-0.1 1 0.6-1.1 2-2.3 3.9-2.3 2.5 0 4 1.3 4 4.3v5.2h1.7v2.1h-4.5v-6.8c0-1.4-0.4-2.3-1.8-2.3-2 0-3.3 1.7-3.3 3.9v3.1h1.6v2.1h-6.1v-2.2z"/>
	<path class="st1" d="m249.1 39c3.5 0 6.3 2.5 6.3 6s-2.8 6-6.3 6-6.3-2.5-6.3-6 2.8-6 6.3-6zm0 9.5c1.8 0 3.4-1.4 3.4-3.6 0-2.1-1.5-3.6-3.4-3.6s-3.4 1.5-3.4 3.6c0 2.2 1.6 3.6 3.4 3.6z"/>
</g>
<g class="st0">
	<path class="st1" d="m257.8 36.9h-1.8v-2.1h4.6v12.1c0 1 0.2 1.6 1.2 1.6h0.5v2.3s-0.5 0.1-1 0.1c-1.8 0-3.5-0.6-3.5-3.7v-10.3z"/>
</g>
<g class="st0">
	<path class="st1" d="m270 39c3.5 0 6.3 2.5 6.3 6s-2.8 6-6.3 6-6.3-2.5-6.3-6 2.8-6 6.3-6zm0 9.5c1.8 0 3.4-1.4 3.4-3.6 0-2.1-1.5-3.6-3.4-3.6s-3.4 1.5-3.4 3.6c0 2.2 1.6 3.6 3.4 3.6z"/>
	<path class="st1" d="m283 53c1.7 0 3.2-0.8 3.2-2.9v-0.7-0.6c-0.7 1-1.7 1.6-3.2 1.6-3.3 0-5.1-2.6-5.1-5.8 0-3.1 1.8-5.7 5.1-5.7 1.4 0 2.9 0.5 3.5 1.7v-0.4c0-0.6 0.4-1.1 1.3-1.1h2.8v2.1h-1.1c-0.3 0-0.5 0.2-0.5 0.4v8.4c0 3.9-3 5.4-6 5.4-1.4 0-3-0.4-4.1-1l0.9-2.1s1.4 0.7 3.2 0.7zm3.3-8.3c0-2.6-1.3-3.3-2.8-3.3-1.7 0-2.7 1.3-2.7 3.2 0 2 1 3.5 2.9 3.5 1.3-0.1 2.6-0.8 2.6-3.4z"/>
</g>
<g class="st0">
	<path class="st1" d="m294.5 53c0.9 0 1.7-0.5 2-1.3l0.3-0.7-3.9-9.6h-1.4v-2.1h5.6v2.1h-1.3l2.1 5.8c0.2 0.6 0.2 1.2 0.2 1.2h0.1s0.1-0.6 0.3-1.2l2.1-5.8h-1.3v-2.1h5.4v2.1h-1.3l-4.2 10.8c-0.9 2.3-2.6 3.2-4.5 3.2-1.7 0-2.8-0.8-2.8-0.8l0.9-2.1s0.7 0.5 1.7 0.5z"/>
</g>
<g class="st0">
	<path class="st1" d="m306.1 47.8h2.8v2.9h-2.8v-2.9z"/>
	<path class="st1" d="m317.5 39c3.5 0 6.3 2.5 6.3 6s-2.8 6-6.3 6-6.3-2.5-6.3-6c0.1-3.5 2.9-6 6.3-6zm0.1 9.5c1.8 0 3.4-1.4 3.4-3.6 0-2.1-1.5-3.6-3.4-3.6s-3.4 1.5-3.4 3.6c0 2.2 1.5 3.6 3.4 3.6z"/>
	<path class="st1" d="m325.6 48.5h1.7v-6.7c0-0.3-0.2-0.5-0.5-0.5h-1.3v-2.1h3c1 0 1.5 0.4 1.5 1.4v0.7 0.7c0.5-1.6 1.9-2.9 3.6-2.9h0.5v2.8h-0.7c-2.3 0-3.3 2-3.3 4.2v2.5h1.6v2.1h-6.1v-2.2z"/>
	<path class="st1" d="m340.5 53c1.7 0 3.2-0.8 3.2-2.9v-0.7-0.6c-0.7 1-1.7 1.6-3.2 1.6-3.3 0-5.1-2.6-5.1-5.8 0-3.1 1.8-5.7 5.1-5.7 1.4 0 2.9 0.5 3.5 1.7v-0.4c0-0.6 0.4-1.1 1.3-1.1h2.8v2.1h-1.1c-0.3 0-0.5 0.2-0.5 0.4v8.4c0 3.9-3 5.4-6 5.4-1.4 0-3-0.4-4.1-1l0.9-2.1s1.4 0.7 3.2 0.7zm3.3-8.3c0-2.6-1.3-3.3-2.8-3.3-1.7 0-2.7 1.3-2.7 3.2 0 2 1 3.5 2.9 3.5 1.3-0.1 2.6-0.8 2.6-3.4z"/>
</g>
<circle class="st2" cx="39.4" cy="39.4" r="36.9"/>
<path class="st2" d="m34 48.3h-2.4c-5.7 0-10.4-4.7-10.4-10.4v-13.2"/>
<path class="st2" d="M39.6,65.3V33c0-4.5,3.7-8.2,8.2-8.2h2.8c4.5,0,8.2,3.7,8.2,8.2v4.9c0,5.7-4.7,10.4-10.4,10.4h-9.8"/>
</svg>
