<svg viewBox="0 0 150 100" xmlns="http://www.w3.org/2000/svg" xmlns:xlink="http://www.w3.org/1999/xlink">
  <defs>
    <path id="a" d="M.179.016H105.53v63.996H.18z"/>
    <path id="c" d="M.21.052h37.074V55.11H.209z"/>
  </defs>
  <g fill="none" fill-rule="evenodd">
    <g>
      <g transform="translate(12)">
        <path fill="#1D1D1B" d="M.97 78.64v-8.737h1.35v7.699h4.476v1.039z"/>
        <g>
          <path d="M9.964 73.096c-.53 0-.979.172-1.34.517a1.86 1.86 0 0 0-.584 1.219h3.733c0-.482-.151-.883-.454-1.207-.33-.353-.784-.53-1.355-.53M12.87 75.7h-4.86c0 .789.215 1.395.647 1.816.382.372.873.554 1.473.554.684 0 1.255-.2 1.714-.596l.502.861c-.184.187-.467.345-.85.48a4.655 4.655 0 0 1-1.599.263c-.847 0-1.568-.29-2.158-.863-.659-.632-.99-1.483-.99-2.553 0-1.11.338-2 1.015-2.67.604-.603 1.319-.902 2.147-.902.96 0 1.714.27 2.261.813.525.52.792 1.208.792 2.07 0 .263-.033.504-.094.727M15.69 69.708c.206 0 .384.07.527.215a.708.708 0 0 1 .217.52.715.715 0 0 1-.217.525.721.721 0 0 1-.527.218.718.718 0 0 1-.52-.218.72.72 0 0 1-.216-.525c0-.208.071-.38.213-.525a.718.718 0 0 1 .523-.21zm-.479 9.28v-5.73h-.926v-1.006h2.121v6.736h-1.195zM19.926 73.663v3.886c0 .068.147.177.446.33.298.152.525.229.68.229.816 0 1.4-.194 1.751-.585.353-.39.529-1.045.529-1.963 0-.763-.206-1.358-.618-1.785-.41-.425-.965-.643-1.661-.643-.149 0-.352.065-.615.191-.263.124-.434.237-.512.34m-.177 4.843l-.421.609h-.598V69.43h1.196v3.322c.111-.158.326-.301.637-.43.314-.128.62-.195.924-.195.923 0 1.67.318 2.244.955.573.64.86 1.444.86 2.415 0 1.124-.289 2.009-.864 2.652-.574.644-1.353.966-2.335.966-.319 0-.63-.059-.94-.179-.309-.12-.544-.263-.703-.43M30.363 78.989V75.07c0-.716-.109-1.22-.324-1.505-.216-.29-.58-.434-1.086-.434-.273 0-.559.082-.855.246-.3.164-.53.366-.687.605v5.006h-1.197v-6.737h.818l.38.869c.392-.661 1.037-.994 1.93-.994 1.477 0 2.217.896 2.217 2.693v4.169h-1.196zM34.523 69.708c.206 0 .38.07.525.215a.705.705 0 0 1 .218.52.712.712 0 0 1-.218.525.723.723 0 0 1-.525.218.722.722 0 0 1-.522-.218.722.722 0 0 1-.215-.525.72.72 0 0 1 .736-.735zm-.48 9.28v-5.73h-.927v-1.006h2.122v6.736h-1.195zM39.114 77.919h3.739v1.07h-5.616v-.314l3.835-5.351H37.3V72.25h5.516v.34zM6.833 84.014L6.31 85.05c-.636-.469-1.257-.704-1.866-.704-.965 0-1.729.34-2.285 1.02-.557.678-.837 1.578-.837 2.697 0 1.065.274 1.922.82 2.573.551.65 1.297.974 2.24.974.671 0 1.217-.202 1.63-.601v-2.16H4.737V87.78h2.537v4.013c-.334.286-.805.514-1.406.688a6.26 6.26 0 0 1-1.747.261c-1.274 0-2.278-.43-3.014-1.29C.369 90.59 0 89.443 0 88.011c0-1.425.404-2.582 1.213-3.467.81-.89 1.899-1.33 3.27-1.33.962 0 1.746.266 2.35.799M12.225 86.73c-.532 0-.978.171-1.34.517-.344.325-.54.732-.586 1.219h3.735c0-.48-.152-.885-.453-1.208-.332-.352-.784-.527-1.356-.527m2.905 2.603h-4.862c0 .788.215 1.395.649 1.816.383.37.873.556 1.474.556.682 0 1.254-.2 1.713-.598l.504.861c-.185.185-.469.345-.853.478a4.632 4.632 0 0 1-1.597.264c-.85 0-1.569-.287-2.16-.862-.66-.633-.99-1.483-.99-2.552 0-1.113.339-2.003 1.015-2.676.604-.597 1.32-.897 2.148-.897.96 0 1.714.27 2.261.813.53.518.792 1.207.792 2.066 0 .266-.03.508-.094.731M24.537 92.586V88.32c0-1.06-.462-1.59-1.381-1.59-.29 0-.561.088-.812.266-.255.178-.425.381-.518.606v4.983H20.63v-4.787a.93.93 0 0 0-.375-.783c-.248-.19-.58-.285-.992-.285-.238 0-.493.092-.764.275-.272.184-.464.39-.575.61v4.97h-1.198v-6.737h.782l.396.783c.461-.607 1.04-.907 1.73-.907.966 0 1.642.3 2.03.896.133-.254.382-.467.749-.64a2.61 2.61 0 0 1 1.126-.256c.695 0 1.237.206 1.62.617.381.415.573.993.573 1.741v4.503h-1.195zM30.804 86.73c-.534 0-.978.171-1.34.517a1.85 1.85 0 0 0-.587 1.219h3.733c0-.48-.15-.885-.45-1.208-.333-.352-.787-.527-1.356-.527m2.903 2.603h-4.86c0 .788.215 1.395.647 1.816.382.37.873.556 1.474.556.683 0 1.254-.2 1.713-.598l.502.861c-.181.185-.464.345-.847.478a4.643 4.643 0 0 1-1.6.264c-.85 0-1.569-.287-2.161-.862-.658-.633-.989-1.483-.989-2.552 0-1.113.338-2.003 1.014-2.676.604-.597 1.322-.897 2.146-.897.965 0 1.716.27 2.261.813.53.518.795 1.207.795 2.066 0 .266-.032.508-.095.731M36.561 83.302c.204 0 .38.073.525.216a.714.714 0 0 1 .219.52.71.71 0 0 1-.219.523.714.714 0 0 1-.525.22.713.713 0 0 1-.521-.22.709.709 0 0 1-.215-.524c0-.205.07-.378.213-.522a.72.72 0 0 1 .523-.213zm-.482 9.284v-5.732h-.924v-1.005h2.123v6.737h-1.2zM43.892 92.586v-3.92c0-.718-.109-1.216-.325-1.505-.217-.287-.58-.43-1.086-.43-.273 0-.557.082-.859.246a1.874 1.874 0 0 0-.684.603v5.006H39.74v-6.737h.82l.38.866c.393-.66 1.038-.99 1.931-.99 1.478 0 2.217.895 2.217 2.69v4.17h-1.195zM47.114 92.182l.423-1.131c.667.437 1.203.655 1.612.655.738 0 1.108-.312 1.108-.931 0-.445-.356-.828-1.07-1.145-.55-.254-.922-.444-1.112-.574a2.405 2.405 0 0 1-.498-.443 1.836 1.836 0 0 1-.315-.527 1.741 1.741 0 0 1-.103-.6c0-.554.203-.987.605-1.297.403-.31.931-.464 1.58-.464.493 0 1.111.154 1.857.464l-.337 1.107c-.477-.376-.952-.565-1.432-.565-.283 0-.525.064-.719.201-.197.134-.294.302-.294.51 0 .431.245.757.738.98l.854.39c.525.237.909.512 1.148.818.238.306.358.69.358 1.152 0 .6-.211 1.075-.635 1.417-.426.343-1.012.512-1.764.512a4.02 4.02 0 0 1-2.004-.529M58.118 86.397l-.592.842c-.122-.12-.336-.238-.646-.345a2.709 2.709 0 0 0-.907-.163c-.655 0-1.17.228-1.55.682-.383.455-.575 1.079-.575 1.87 0 .789.197 1.387.586 1.802.392.414.93.62 1.625.62.538 0 1.077-.206 1.624-.623l.472 1.006c-.642.415-1.435.623-2.385.623-.919 0-1.68-.307-2.28-.924-.601-.617-.9-1.45-.9-2.505 0-1.071.31-1.933.936-2.584.622-.65 1.475-.973 2.557-.973.35 0 .728.072 1.135.217.407.149.707.298.9.455M64.036 92.586v-4.233c0-.505-.123-.9-.369-1.187-.25-.292-.598-.435-1.047-.435-.287 0-.582.082-.871.252-.293.172-.514.371-.672.597v5.006H59.88v-9.499h1.196v3.504c.16-.247.417-.453.773-.62a2.56 2.56 0 0 1 1.098-.246c.714 0 1.272.235 1.678.703.404.47.61 1.113.61 1.925v4.233h-1.2zM71 89.278c-.379-.086-.641-.126-.794-.126-.602 0-1.096.154-1.478.464-.383.312-.573.68-.573 1.1 0 .7.413 1.053 1.238 1.053.607 0 1.141-.289 1.607-.862v-1.63zm.113 2.534c-.477.6-1.21.9-2.198.9-.53 0-.985-.193-1.377-.577-.387-.383-.578-.86-.578-1.431 0-.681.299-1.26.894-1.73.6-.475 1.362-.71 2.29-.71.252 0 .538.056.856.165 0-1.091-.487-1.636-1.461-1.636-.745 0-1.32.198-1.725.604l-.502-1c.224-.185.537-.343.94-.475.401-.133.784-.197 1.15-.197.977 0 1.688.22 2.13.665.443.446.664 1.152.664 2.12v2.416c0 .592.177.984.53 1.182v.597c-.487 0-.852-.069-1.094-.208-.242-.136-.414-.366-.52-.685zM77.925 84.158a2.135 2.135 0 0 0-.682-.127 1.14 1.14 0 0 0-.904.416c-.237.278-.355.626-.355 1.049a2 2 0 0 0 .032.353h1.373v1.005h-1.373v5.732h-1.198v-5.732h-.982V85.85h.982c0-.862.214-1.533.638-2.025.422-.49.985-.737 1.68-.737.349 0 .722.065 1.122.189l-.333.882zM79.638 86.793h-.781v-.944h.78v-1.408l1.2-.46v1.868h1.849v.944h-1.85v3.346c0 .565.095.97.286 1.207.191.24.499.36.921.36.308 0 .623-.081.952-.234l.178 1.05a6.662 6.662 0 0 1-1.632.189c-.533 0-.985-.198-1.353-.595-.364-.397-.55-.895-.55-1.5v-3.823z" fill="#1D1D1B"/>
          <g transform="translate(.441)">
            <mask id="b" fill="#fff">
              <use xlink:href="#a"/>
            </mask>
            <g/>
            <path d="M72.567 43.619c-.488.789-1.402-1.006-3.16 1.272-.732.956-.244 2.094-1.142 3.115-1.006 1.135-1.96 2.046-1.187-1.139.788-3.235.388-1.886.77-3.275.414-1.536 1.894-6.853 2.402-7.965.72-1.573.901-2.31 2.835-5.178 0 0 1.355-1.71 1.603-1.96 1.047-1.07 4.946-2.929 3.078 4.137-1.485 5.616-2.654 6.906-5.2 10.993m.24 8.126c-.655 2.51-1.79 6.504-2.764 7.743-.677.858-2.327 3.334-3.587-.955-1.255-4.296 1.784-7.965 1.784-7.965s1.283-1.707 2.124-1.705c1.036 0 3.097.378 2.442 2.882m-67.035-.91c-.7.29-2.65-1.315-2.572-2.178.138-1.7 1.925.013 3.981-.065 2.08-.086-.674 1.928-1.409 2.243m31.796-35.078c2.059-2.002 3.617-3.574 4.963-4.822 6.313-5.848 6.16-5.364 7.054-5.94 1.668-1.08 5.487-3.165 6.647-2.135 1.283 1.137.743 3.605-1.26 5.75-2.063 2.208-7.996 8.225-13.208 11.11-3.513 1.944-17.547 9.026-4.196-3.963m54.099 39.81c.634.81 2.22 2.256 6.085-1.431 3.87-3.688 1.902-2.13 4.097 2.613 2.198 4.74 3.502 2.086 3.62 1.151.292-2.336-.497-6.895-1.018-8.745-.438-1.551-3.152-2.284-4.22-1.485-1.01.745-3.674 3.809-5.467 4.41-1.792.6-.392-1.138-.887-3.997-.491-2.858-1.573-4.14-2.7-3.64-.756.337-2.363 1.964-3.195 1.628-1.772-.704-4.186-2.781-9.048-.305-8.81 4.488-2.274-4.681-2.274-4.681s6.503-10.176 3.078-15.42c-3.344-5.119-9.292 3.92-10.763 6.718-1.965 3.726-3.496 8.81-5.178 16.481-.977 4.457-6.39 6.123-7.75 4.4-1.468-1.86-1.18-9.286-6.275-6.087-5.097 3.195-4.939 9.439-8.137 2.418-3.196-7.02-6.37-2.431-6.781-1.682-.568 1.052-.232 3.329-1.097 3.838-.974.573-2.237-1.407-2.987-1.673-.804-.278-5.932 4.033-8.223 8.526-3.302 6.48-9.695-7.297-9.176-8.272.448-.85 12.865-18.144 14.357-20.667 1.586-2.68 2.735-3.552 3.7-3.697.962-.142 12.772-3.028 21.845-12.134C60.96 6.115 60.216 3.7 58.633 1.588 58.161.964 57.46.494 56.533.182c-4.606-1.555-15.24 8.312-16.216 9.25-1.585 1.523-10.97 12-11.655 13.411-.685 1.412-17.082 1-17.082 1-1.893.954.233 1.697.233 1.697s7.404.988 12.006.748c3.983-.206 1.669 2.408 1.074 3.168C21.47 33.838 15.53 43.2 13.351 45.777c-2.08 2.465-5.991.128-7.093-.088-1.127-.222-7.323-1.067-5.856 4.098 1.474 5.167 6.16 2.789 8.185 3.252.619.137 2.051.809 2.4 1.594.78 1.733 1.783 3.666 2.632 4.981 1.411 2.186 7.486 8.03 11.628.097 4.554-8.72 7.747-5.495 8.069-.81.329 4.68 1.814 2.908 3.51 2.132 1.689-.774.19-4.004.315-8.254.122-4.254 3.975 2.12 4.063 3.822.067 1.244 2.321 1.425 4.645.45 2.322-.976.028-2.78 3.198-5.771 3.18-2.984 3.766 3.849 4.505 5.502.621 1.383 3.714 3.834 5.566.285 1.63-3.12 4.938-2.086 4.985 2.401.04 3.738 2.761 4.506 3.794 4.542.37.015.795-.026 1.38-.264 2.052-.842 5.3-5.348 5.257-9.303-.07-6.714 10.86-7.795 10.079-5.517-.566 1.639-2.988 6.476-.029 6.368 2.955-.107 1.698-2.637 4.42-5.545 2.72-2.906 1.597 4.457 2.66 5.818" fill="#1D1D1B" mask="url(#b)"/>
          </g>
          <path d="M58.075 33.027c4.75-2.516.924-4.725.924-4.725s-2.818-2.183-3.155 1.963c-.324 4.144 2.231 2.762 2.231 2.762z" fill="#1D1D1B"/>
          <g transform="translate(87.84 44.088)">
            <mask id="d" fill="#fff">
              <use xlink:href="#c"/>
            </mask>
            <g/>
            <path d="M27.51 33.83s-4.94 10.345-5.562 11.297c-.746 1.153-4.596 6.627-10.358 7.46-5.764.838-8.624-1.417-8.749-4.272-.124-2.722 1.795-4.567 8.122-7.634 14.183-6.873 14.824-7.262 14.824-7.262 1.02-.406 2.99-1.727 1.723.411zm1.034-25.24c-.017.065-.037.123-.049.165l.049-.166zm8.625 16.07c-.246-.64-.897-1.464-2.824.901-2.947 3.622-2.65 1.434-2.952-.918-.05-.395-.361-2.277-1.706-2.99-1.23-.65-6.261-2.313-5.016-3.3 3.072-2.421 2.985-2.238 3.884-3.252 1.095-1.23 4.657-5.787 4.364-10.34C32.58-.535 25.015.073 25.015.073c-5.177.795-2.828 5.315.755 4.755 3.958-.618 3.023 2.846 2.774 3.761-.004.007-.417 1.104-1.257 2.432-1.124 1.776-2.823 4.106-3.868 5.265-.68.754-4.638 3.324-1.782 4.687 4.744 2.255 8.435 7.74 6.019 9.24-1.687 1.047-15.122 7.26-18.124 8.585-2.9 1.284-9.377 3.619-9.322 9.865.062 6.73 9.36 6.678 11.405 6.32 5.88-1.023 9.007-4.251 11.22-6.938 1.889-2.294 6.341-11.634 6.858-13.284.439-1.401 2.187-6.616 4.689-7.32 2.804-.79 3.14-1.842 2.787-2.78z" fill="#1D1D1B" mask="url(#d)"/>
          </g>
          <path d="M111.173 32.308c-1.261-.49-4.949 1.47-3.788 4.624 1.19 3.22 9.552-2.367 3.788-4.624" fill="#1D1D1B"/>
        </g>
      </g>
    </g>
  </g>
</svg>
