<svg id="Ebene_1" data-name="Ebene 1" xmlns="http://www.w3.org/2000/svg" viewBox="0 0 257.73 40.07"><defs><style>.cls-1,.cls-2{fill:#fff;}.cls-1{stroke:#fff;}.cls-1,.cls-3{stroke-miterlimit:10;}.cls-3{fill:none;stroke:#9b368b;stroke-width:4.09px;}</style></defs><path class="cls-1" d="M60.26,30.82h2.29V17H60.26V14.3h9.18a8.55,8.55,0,0,1,3.24.48,5.89,5.89,0,0,1,3.42,5.67,6,6,0,0,1-3.64,5.83,9.15,9.15,0,0,1-2.94.38H66.09v4.16h2.32v2.64H60.26Zm8.8-7A4.14,4.14,0,0,0,71,23.45a3.11,3.11,0,0,0,1.57-3,3.13,3.13,0,0,0-1.4-2.86,4,4,0,0,0-2.08-.46h-3v6.7Z" transform="translate(-6.84 -3.37)"/><path class="cls-1" d="M77.62,28.87h2.92v.81c0,.95,1.26,1.43,2.7,1.43s2.34-.48,2.34-1.4c0-1.16-1.29-1.46-3.13-2.13-2-.7-4.34-1.65-4.34-4.27,0-2.91,2.91-3.94,5.42-3.94,2,0,5,.78,5,2.86V24H85.56v-.78c0-.71-.81-1.14-2-1.14s-2,.38-2,1.24c0,1.14,1.35,1.6,2.89,2.05C86.53,26,89,26.9,89,29.6s-2.64,4.19-5.8,4.19c-2.51,0-5.59-1.08-5.59-3.32Z" transform="translate(-6.84 -3.37)"/><path class="cls-1" d="M93.82,36.32a2.55,2.55,0,0,0,2.43-1.59l.38-.86L91.9,22.26H90.26V19.7H97v2.56H95.41l2.51,7a5.76,5.76,0,0,1,.3,1.42h.08a7.14,7.14,0,0,1,.38-1.42l2.48-7H99.57V19.7h6.5v2.56h-1.56l-5.08,13A5.56,5.56,0,0,1,94,39.13a6.32,6.32,0,0,1-3.35-.94l1.11-2.51A3.59,3.59,0,0,0,93.82,36.32Z" transform="translate(-6.84 -3.37)"/><path class="cls-1" d="M114.55,19.37c2.3,0,5.65.87,5.65,3.3v1.89h-3v-.92c0-.92-1.41-1.35-2.57-1.35a3.89,3.89,0,0,0-4,4.24,4.12,4.12,0,0,0,4.32,4.37,7.21,7.21,0,0,0,4.29-1.67l1.22,2.42a8.77,8.77,0,0,1-5.7,2.14c-4,0-7.58-2.73-7.58-7.18A7.16,7.16,0,0,1,114.55,19.37Z" transform="translate(-6.84 -3.37)"/><path class="cls-1" d="M122.09,30.9h2v-14H122V14.3h5.56V21a7.8,7.8,0,0,1-.08,1.16h.06a5.36,5.36,0,0,1,4.75-2.78c3,0,4.8,1.6,4.8,5.24V30.9h2v2.56h-5.42V25.31c0-1.67-.44-2.81-2.16-2.81-2.43,0-4,2.11-4,4.65V30.9h2v2.56h-7.4Z" transform="translate(-6.84 -3.37)"/><path class="cls-1" d="M141.1,31.9h2.48V16.05H141.1V14.49h4.32l10.63,15a9.67,9.67,0,0,1,.57,1.16h0a8.81,8.81,0,0,1-.08-1.32V16.05h-2.51V14.49H161v1.56h-2.48V33.46h-1.83L146,18.48a9.67,9.67,0,0,1-.57-1.16h-.05a8.69,8.69,0,0,1,.08,1.3V31.9H148v1.56H141.1Z" transform="translate(-6.84 -3.37)"/><path class="cls-1" d="M168.83,19.56a7.12,7.12,0,1,1-7.16,7.05A7,7,0,0,1,168.83,19.56Zm0,12.58a5.36,5.36,0,0,0,5.29-5.53,5.28,5.28,0,1,0-10.56,0A5.36,5.36,0,0,0,168.83,32.14Z" transform="translate(-6.84 -3.37)"/><path class="cls-1" d="M179.06,21.4h-2.43V19.89h2.46V16.13h1.8v3.76h3.43V21.4h-3.43v7c0,3.19,2,3.62,3.08,3.62a2.81,2.81,0,0,0,.62-.06v1.6a5.59,5.59,0,0,1-.78,0c-1.57,0-4.75-.51-4.75-5.05Z" transform="translate(-6.84 -3.37)"/><path class="cls-1" d="M193.26,19.56c3.75,0,5.69,2.89,5.69,6.26a7.76,7.76,0,0,1-.08.87H188.45c.09,3.48,2.46,5.45,5.27,5.45a6.37,6.37,0,0,0,4.13-1.62l.83,1.38a7.68,7.68,0,0,1-5,1.89,6.87,6.87,0,0,1-7.1-7.1C186.56,22.23,189.59,19.56,193.26,19.56ZM197,25.34c-.11-2.86-1.84-4.24-3.83-4.24a4.65,4.65,0,0,0-4.67,4.24Z" transform="translate(-6.84 -3.37)"/><path class="cls-1" d="M202.63,16H200.2V14.49h4.26v6.69a7.85,7.85,0,0,1-.08,1.14h.06a5,5,0,0,1,4.64-2.76c3.64,0,5.91,2.92,5.91,7.13s-2.56,7.1-6.13,7.1A5,5,0,0,1,204.38,31h0a7.61,7.61,0,0,1,.08,1.13v1.32h-1.78Zm6.1,16.14c2.4,0,4.4-2,4.4-5.45s-1.78-5.45-4.32-5.45c-2.27,0-4.4,1.61-4.4,5.47C204.41,29.44,205.84,32.14,208.73,32.14Z" transform="translate(-6.84 -3.37)"/><path class="cls-1" d="M224.66,19.56a7.12,7.12,0,1,1-7.15,7.05A7,7,0,0,1,224.66,19.56Zm0,12.58A5.36,5.36,0,0,0,230,26.61a5.28,5.28,0,1,0-10.55,0A5.35,5.35,0,0,0,224.66,32.14Z" transform="translate(-6.84 -3.37)"/><path class="cls-1" d="M241.43,19.56a7.12,7.12,0,1,1-7.16,7.05A7,7,0,0,1,241.43,19.56Zm0,12.58a5.36,5.36,0,0,0,5.29-5.53,5.28,5.28,0,1,0-10.56,0A5.36,5.36,0,0,0,241.43,32.14Z" transform="translate(-6.84 -3.37)"/><path class="cls-1" d="M250.53,32h2.29V16h-2.43V14.49h4.27V25.18h2.13L260,21.4h-1.94V19.89h5.83V21.4H262l-3.73,4.32v.05s.41.16,1,1.08l2.7,4.53c.27.46.48.57,1.24.57h.92v1.51h-1.52a2.1,2.1,0,0,1-2.34-1.35l-2.89-4.88a1.31,1.31,0,0,0-1.32-.57h-1.35V32h2.15v1.51h-6.28Z" transform="translate(-6.84 -3.37)"/><path class="cls-2" d="M41,43.44H12.5a5.66,5.66,0,0,1-5.66-5.65V9.29A5.67,5.67,0,0,1,12.5,3.63H41a5.66,5.66,0,0,1,5.65,5.66v28.5A5.65,5.65,0,0,1,41,43.44ZM12.5,7.73a1.56,1.56,0,0,0-1.56,1.56v28.5a1.56,1.56,0,0,0,1.56,1.56H41a1.56,1.56,0,0,0,1.56-1.56V9.29A1.56,1.56,0,0,0,41,7.73Z" transform="translate(-6.84 -3.37)"/><path class="cls-3" d="M17.15,5.65" transform="translate(-6.84 -3.37)"/><path class="cls-3" d="M25.1,41.33" transform="translate(-6.84 -3.37)"/><path class="cls-2" d="M44.84,36A43,43,0,0,1,22.47,5.57l4-.75A38.9,38.9,0,0,0,46.74,32.35Z" transform="translate(-6.84 -3.37)"/><path class="cls-2" d="M25.1,40.8l-4-.94A39.61,39.61,0,0,0,13.55,5.92l3.2-2.55A43.71,43.71,0,0,1,25.1,40.8Z" transform="translate(-6.84 -3.37)"/></svg>